HIERARCHY
ROOT pelvis
{
  OFFSET 0 100 0
  CHANNELS 6 Xposition Yposition Zposition Zrotation Xrotation Yrotation
  JOINT pelvis_right_femur
  {
    OFFSET -10.78128 -3.44521 -0.5502486
    CHANNELS 3 Zrotation Xrotation Yrotation
    JOINT right_femur_tibia
    {
      OFFSET -0.8047443 -44.0398 -0.1307829
      CHANNELS 3 Zrotation Xrotation Yrotation
      JOINT right_tibia_foot
      {
        OFFSET 3.006224 -47.83518 -5
        CHANNELS 3 Zrotation Xrotation Yrotation
        End Site
        {
          OFFSET 0 -5 15
        }
      }
    }
  }
  JOINT pelvis_left_femur
  {
    OFFSET 10.78128 -3.44521 -0.5502486
    CHANNELS 3 Zrotation Xrotation Yrotation
    JOINT left_femur_tibia
    {
      OFFSET 0.8047443 -44.0398 -0.1307829
      CHANNELS 3 Zrotation Xrotation Yrotation
      JOINT left_tibia_foot
      {
        OFFSET -4.370144 -48.10324 -4.275266
        CHANNELS 3 Zrotation Xrotation Yrotation
        End Site
        {
          OFFSET 0 -5 15
        }
      }
    }
  }
  JOINT pelvis_spine1
  {
    OFFSET 0 6.468898 -3.129235
    CHANNELS 3 Zrotation Xrotation Yrotation
    JOINT spine1
    {
      OFFSET 0 23.15396 4.99043
      CHANNELS 3 Zrotation Xrotation Yrotation
      JOINT spine2
      {
        OFFSET 0 20.79997 -5.064912
        CHANNELS 3 Zrotation Xrotation Yrotation
        JOINT neck
        {
          OFFSET 0 14.38658 9.616178
          CHANNELS 3 Zrotation Xrotation Yrotation
          End Site
          {
            OFFSET 0 20 0
          }
        }
      }
      JOINT right_manubrium
      {
        OFFSET -5.722621 16.35077 3.967754
        CHANNELS 3 Zrotation Xrotation Yrotation
        JOINT right_clavicle
        {
          OFFSET -13.16364 1.694482 -4.693211
          CHANNELS 3 Zrotation Xrotation Yrotation
          JOINT right_humerus
          {
            OFFSET -28.5034 -0.3100689 -2.792744
            CHANNELS 3 Zrotation Xrotation Yrotation
            JOINT right_radius
            {
              OFFSET -25.15693 0.02248979 -1.271978
              CHANNELS 3 Zrotation Xrotation Yrotation
              End Site
              {
                OFFSET -15 0 0
              }
            }
          }
        }
      }
      JOINT left_manubrium
      {
        OFFSET 5.722621 16.35077 3.967754
        CHANNELS 3 Zrotation Xrotation Yrotation
        JOINT left_clavicle
        {
          OFFSET 13.16364 1.694482 -4.693211
          CHANNELS 3 Zrotation Xrotation Yrotation
          JOINT left_humerus
          {
            OFFSET 29.39168 -1.063119 -2.237045
            CHANNELS 3 Zrotation Xrotation Yrotation
            JOINT left_radius
            {
              OFFSET 24.59957 -0.9528479 0.9047498
              CHANNELS 3 Zrotation Xrotation Yrotation
              End Site
              {
                OFFSET 15 -0 -0
              }
            }
          }
        }
      }
    }
  }
}
MOTION
Frames: 19
Frame Time: 0.0416666666667
0 103.5113 0 2.188616 -1.152139 0.2698566 1.219754 -10.11155 8.670833 -0 33.9157 -0 -5.248587 -17.86131 -2.214636 -8.04364 10.07469 -23.45384 -0 5.175135 -0 7.665879 -16.17513 26.54605 -4.353234 -5.059588 4.976015 2.036633 9.20139 -7.72884 0.8486608 22.80322 7.164568 3.254698 -23.10692 8.808904 6.362115 -19.74091 11.57745 86.30688 35.94389 -19.80027 -0 0 16.23595 -7.582692 8.244568 4.613791 5.535872 -19.49836 -1.675473 -94.77544 29.73701 22.88697 0 0 -16.03853 3.508575 17.90872 9.534095
0.3481539 103.534 1.409166 2.05927 -0.9415368 0.4388713 1.421462 -11.10515 8.444078 -0 32.40718 -0 -5.254591 -17.26943 -1.949283 -7.930081 10.17453 -23.22978 -0 5.311461 -0 7.499415 -16.48558 26.30714 -4.319029 -4.892465 4.96719 2.148287 9.146552 -7.716466 0.898202 22.68609 7.162394 3.287923 -23.24041 8.838346 6.320786 -19.64604 11.57903 86.2927 35.91634 -19.86809 -0 0 16.10201 -7.633197 8.28103 4.629469 5.676254 -19.57901 -1.636808 -94.65741 29.67875 22.65435 0 0 -16.40214 3.577578 17.83078 9.457234
0.7165452 103.4693 2.959225 1.891311 -0.6244681 0.543514 1.662936 -12.45308 8.090009 -0 29.88334 -0 -5.256548 -16.38111 -1.490002 -7.790417 10.30335 -22.88236 -0 5.551647 -0 7.241904 -16.92464 25.93545 -4.28167 -4.675047 4.973863 2.306769 9.065447 -7.68834 0.9712851 22.51571 7.156763 3.340157 -23.41589 8.873242 6.25208 -19.49878 11.5796 86.28526 35.87522 -19.97634 -0 0 15.89816 -7.706996 8.33743 4.651521 5.887459 -19.69946 -1.578854 -94.47817 29.59373 22.29514 0 0 -16.93845 3.677101 17.71931 9.339155
1.109778 103.2933 4.701677 1.703797 -0.2067514 0.5849766 1.909476 -14.01659 7.614896 -0 26.38205 -0 -5.262929 -15.23963 -0.8479241 -7.640294 10.45488 -22.40854 -0 5.943727 -0 6.877035 -17.45262 25.41161 -4.239934 -4.436261 4.993647 2.49518 8.962168 -7.649507 1.058462 22.30686 7.150244 3.407724 -23.61008 8.906642 6.156106 -19.29969 11.57408 86.30146 35.82234 -20.12864 -0 0 15.62379 -7.801615 8.416434 4.680736 6.150611 -19.85353 -1.507165 -94.241 29.48401 21.82588 0 0 -17.59995 3.79646 17.57632 9.192088
1.52818 102.998 6.691773 1.517988 0.3009399 0.5866902 2.128988 -15.60505 7.031237 -0 22.06981 -0 -5.288522 -13.91983 -0.06596597 -7.494079 10.62744 -21.80352 -0 6.57091 -0 6.373868 -18.00778 24.69974 -4.18405 -4.214524 5.012693 2.686588 8.842953 -7.61402 1.142778 22.08392 7.148718 3.482856 -23.79119 8.929491 6.035596 -19.04997 11.55346 86.36791 35.76098 -20.33061 -0 0 15.27608 -7.913859 8.523 4.719438 6.430648 -20.03077 -1.432256 -93.95057 29.35224 21.27898 0 0 -18.30426 3.917862 17.40194 9.039844
1.968059 102.5934 8.987034 1.350382 0.8823126 0.5910821 2.299219 -17.02552 6.356337 -0 17.1817 -0 -5.348538 -12.50867 0.8013018 -7.361537 10.814 -21.06624 -0 7.527127 -0 5.700412 -18.51455 23.76576 -4.100321 -4.044903 5.015491 2.854392 8.714765 -7.596721 1.206759 21.87147 7.15778 3.556657 -23.92943 8.932717 5.895441 -18.75227 11.51046 86.50848 35.69465 -20.58514 -0 0 14.85413 -8.041346 8.662012 4.770638 6.688856 -20.21845 -1.365921 -93.61466 29.20056 20.69325 0 0 -18.96368 4.023069 17.196 8.907843
2.423658 102.1052 11.64054 1.203158 1.507966 0.6425101 2.417199 -18.1132 5.620414 -0 12.02123 -0 -5.458398 -11.10067 1.696861 -7.240248 10.98148 -20.20736 -0 8.917787 -0 4.83383 -18.8713 22.5953 -3.971609 -3.945225 4.994856 2.982461 8.585221 -7.60467 1.238213 21.68534 7.178978 3.621101 -24.00742 8.908392 5.744061 -18.41232 11.44735 86.73036 35.62654 -20.88549 -0 0 14.36433 -8.185306 8.836415 4.838115 6.890604 -20.40007 -1.318799 -93.25023 29.0284 20.11207 0 0 -19.50659 4.098723 16.95881 8.815285
2.887995 101.5798 14.69373 1.061636 2.12537 0.7655323 2.502768 -18.68331 4.878654 -0 7.031744 -0 -5.638645 -9.822061 2.551128 -7.10902 11.04824 -19.24947 -0 10.92086 -0 3.752015 -18.90741 21.18908 -3.769697 -3.916878 4.953964 3.064137 8.464487 -7.635797 1.227936 21.53364 7.209161 3.667476 -24.01797 8.846682 5.595871 -18.03842 11.37959 87.02317 35.56115 -21.2128 -0 0 13.82024 -8.353388 9.048996 4.928321 6.996384 -20.5492 -1.303056 -92.88936 28.83112 19.59415 0 0 -19.86249 4.133671 16.68945 8.77884
3.352761 101.0886 18.17256 0.9037986 2.665125 0.9510608 2.591126 -18.52939 4.203156 -0 2.741359 -0 -5.909136 -8.821779 3.287182 -6.933005 10.89497 -18.22174 -0 13.7686 -0 2.444559 -18.40462 19.56785 -3.460235 -3.95079 4.904281 3.098062 8.364932 -7.681181 1.168401 21.42061 7.241951 3.686702 -23.95885 8.735868 5.468865 -17.64096 11.33111 87.36465 35.5045 -21.53895 -0 0 13.24041 -8.558667 9.302765 5.05026 6.963221 -20.63292 -1.331667 -92.57312 28.60188 19.20788 0 0 -19.96092 4.118017 16.38575 8.813665
3.809625 100.7175 22.08605 0.7225733 3.065451 1.161751 2.7064 -17.5147 3.645556 0 -0.4980009 0 -6.269763 -8.208515 3.856409 -6.687509 10.40493 -17.15164 -0 17.59791 -0 0.9535737 -17.22234 17.79928 -3.03151 -4.030081 4.86622 3.085305 8.297967 -7.725362 1.058659 21.34993 7.26937 3.674144 -23.82942 8.567795 5.375784 -17.2354 11.3223 87.72331 35.46163 -21.82868 -0 0 12.64972 -8.816 9.597635 5.212901 6.769614 -20.63042 -1.409368 -92.33006 28.33608 18.99809 0 0 -19.77032 4.048907 16.04781 8.924036
4.253479 100.5414 26.418 0.545994 3.272289 1.348213 2.832774 -15.5964 3.213788 0 -2.670597 0 -6.687273 -8.0292 4.261462 -6.379017 9.440963 -16.06168 -0 22.37278 -0 -0.6037308 -15.38019 16.01678 -2.52117 -4.124743 4.881173 3.025788 8.275861 -7.737946 0.9089943 21.33095 7.279669 3.632815 -23.62431 8.338403 5.320074 -16.85096 11.36665 88.04697 35.43684 -22.02443 -0 0 12.08991 -9.147414 9.928479 5.427729 6.433018 -20.54483 -1.524548 -92.16459 28.03142 18.96757 0 0 -19.3271 3.934693 15.68005 9.095592
4.685717 100.5978 31.11121 0.441197 3.222842 1.464099 2.907816 -12.77615 2.880182 0 -4.061151 0 -7.095335 -8.295515 4.552319 -6.045969 7.795109 -14.97167 -0 27.91689 -0 -2.054733 -13.05097 14.40514 -2.020753 -4.186322 5.020833 2.915512 8.315594 -7.666333 0.7410669 21.38342 7.254569 3.572795 -23.32833 8.044053 5.298078 -16.53667 11.47539 88.25129 35.43591 -22.03082 -0 0 11.62852 -9.590122 10.28572 5.713463 6.007164 -20.4011 -1.648835 -92.06064 27.68507 19.08416 0 0 -18.73234 3.793739 15.29052 9.295897
5.113277 100.8802 36.06578 0.4807828 2.865926 1.477219 2.859794 -9.09354 2.610471 0 -5.063556 0 -7.419797 -8.993323 4.796028 -5.728868 5.265666 -13.89849 -0 33.96193 -0 -3.246663 -10.47978 13.12812 -1.634673 -4.165578 5.356059 2.749437 8.431464 -7.457271 0.5793782 21.52702 7.176301 3.506767 -22.92555 7.683813 5.301405 -16.3451 11.65476 88.24731 35.46336 -21.74717 -0 0 11.33882 -10.18406 10.65719 6.090207 5.557812 -20.23161 -1.750054 -91.99446 27.295 19.30252 0 0 -18.10558 3.646349 14.88843 9.48857
5.543937 101.35 41.16232 0.6961737 2.20567 1.375827 2.653687 -4.661807 2.387079 0 -5.971567 0 -7.60756 -10.07033 5.042228 -5.435117 1.79546 -12.85112 -0 40.1121 -0 -4.110068 -7.896714 12.27036 -1.426442 -4.042136 5.907442 2.52655 8.620536 -7.091807 0.4406985 21.76292 7.039245 3.44453 -22.41464 7.266372 5.315044 -16.31106 11.89646 87.97908 35.51536 -21.11312 -0 0 11.27584 -10.95445 11.0294 6.570596 5.137912 -20.05873 -1.807543 -91.9474 26.86373 19.58588 0 0 -17.53 3.505246 14.48108 9.650903
5.983952 101.9405 46.29414 1.066344 1.320913 1.169308 2.295855 0.3111351 2.204481 0 -6.939377 0 -7.622868 -11.42714 5.317832 -5.131726 -2.499236 -11.82311 -0 45.68677 -0 -4.644391 -5.52142 11.8656 -1.409831 -3.834523 6.628934 2.25056 8.855038 -6.596288 0.3327995 22.06563 6.85339 3.391259 -21.81283 6.814 5.310224 -16.4561 12.17027 87.41728 35.57554 -20.10164 -0 0 11.48976 -11.91831 11.38586 7.16304 4.790132 -19.88897 -1.813065 -91.90862 26.39947 19.91111 0 0 -17.04418 3.373264 14.07265 9.777502
6.43964 102.5543 51.39241 1.535487 0.3458945 0.8827158 1.817233 5.548509 2.057055 0 -8.025393 0 -7.437314 -12.92987 5.635711 -4.759472 -7.382737 -10.78893 -0 49.74896 -0 -4.88198 -3.573866 11.93204 -1.564667 -3.589026 7.426937 1.928978 9.088917 -6.029516 0.257477 22.38964 6.639855 3.348146 -21.15015 6.359128 5.246045 -16.79676 12.42859 86.54565 35.61619 -18.70172 -0 0 12.03541 -13.09158 11.70667 7.875056 4.552951 -19.71688 -1.765996 -91.87275 25.91454 20.26479 0 0 -16.65682 3.246112 13.6647 9.87511
6.920665 103.0733 56.43239 2.042777 -0.5932249 0.5455301 1.255509 10.79149 1.941264 0 -9.211959 0 -7.03886 -14.4538 5.999249 -4.264531 -12.58351 -9.716202 -0 51.56459 -0 -4.867639 -2.19827 12.45679 -1.853326 -3.353781 8.209755 1.573064 9.281934 -5.451699 0.212697 22.69048 6.420859 3.314035 -20.45916 5.931913 5.091929 -17.33356 12.62935 85.37722 35.60581 -16.93464 -0 0 12.93877 -14.47356 11.97409 8.704417 4.446469 -19.53353 -1.672362 -91.83867 25.4219 20.63975 0 0 -16.3553 3.116513 13.25799 9.956256
7.442394 103.3887 61.42646 2.533055 -1.416509 0.1791771 0.6492153 15.8372 1.864707 0 -10.38396 0 -6.440357 -15.90399 6.400464 -3.626332 -17.80759 -8.587326 -0 50.93043 -0 -4.650338 -1.402041 13.37011 -2.225833 -3.165748 8.916764 1.199419 9.416192 -4.906412 0.1938711 22.9352 6.21554 3.287099 -19.7725 5.555103 4.846544 -18.03681 12.75161 83.97561 35.51626 -14.87928 -0 0 14.16526 -16.03014 12.17788 9.628896 4.456612 -19.33076 -1.547366 -91.81028 24.9349 21.0335 0 0 -16.10137 2.974101 12.85348 10.03942
8.025605 103.437 66.41716 2.94631 -2.078448 -0.2148486 0.04230411 20.50108 1.848138 0 -11.29989 0 -5.67692 -17.19736 6.815778 -2.873385 -22.68649 -7.42003 -0 48.10989 -0 -4.284699 -1.069582 14.5405 -2.615716 -3.056675 9.510345 0.8318872 9.494343 -4.425506 0.1945714 23.0957 6.043652 3.265463 -19.12883 5.249622 4.538994 -18.84354 12.79334 82.45859 35.32757 -12.68052 -0 0 15.61871 -17.69186 12.31704 10.604 4.533131 -19.09963 -1.4175 -91.79739 24.47017 21.4477 0 0 -15.82334 2.802068 12.45199 10.15375
